<svg viewBox="0 0 100 100" xmlns="http://www.w3.org/2000/svg">
  <!-- Background circle -->
  <circle cx="50" cy="50" r="48" fill="#2563eb"/>
  
  <!-- Stylized HTB monogram -->
  <g fill="#ffffff">
    <!-- H -->
    <rect x="20" y="30" width="6" height="40" rx="2"/>
    <rect x="20" y="47" width="18" height="6" rx="2"/>
    <rect x="32" y="30" width="6" height="40" rx="2"/>
    
    <!-- T -->
    <rect x="44" y="30" width="18" height="6" rx="2"/>
    <rect x="50" y="30" width="6" height="40" rx="2"/>
    
    <!-- B -->
    <path d="M66 30 h12 a8 8 0 0 1 8 8 a8 8 0 0 1 -8 8 h-12 v-16 M66 46 h14 a12 12 0 0 1 12 12 a12 12 0 0 1 -12 12 h-14 v-24" fill="#ffffff"/>
    <rect x="66" y="30" width="6" height="40" rx="2"/>
  </g>
  
  <!-- Accent dot -->
  <circle cx="85" cy="35" r="4" fill="#60a5fa"/>
</svg>

